<?xml version="1.0" encoding="UTF-8" standalone="no"?>
<!-- Created with Inkscape (http://www.inkscape.org/) -->

<svg
   version="1.1"
   id="svg9262"
   width="800"
   height="800"
   viewBox="0 0 800 800"
   sodipodi:docname="modern-bus-publicdomainvectors.org.svg"
   inkscape:version="1.2 (dc2aedaf03, 2022-05-15)"
   xmlns:inkscape="http://www.inkscape.org/namespaces/inkscape"
   xmlns:sodipodi="http://sodipodi.sourceforge.net/DTD/sodipodi-0.dtd"
   xmlns="http://www.w3.org/2000/svg"
   xmlns:svg="http://www.w3.org/2000/svg">
  <defs
     id="defs9266">
    <clipPath
       clipPathUnits="userSpaceOnUse"
       id="clipPath9282">
      <path
         d="M 0,600 H 600 V 0 H 0 Z"
         id="path9280" />
    </clipPath>
  </defs>
  <sodipodi:namedview
     id="namedview9264"
     pagecolor="#ffffff"
     bordercolor="#000000"
     borderopacity="0.25"
     inkscape:showpageshadow="2"
     inkscape:pageopacity="0.0"
     inkscape:pagecheckerboard="0"
     inkscape:deskcolor="#d1d1d1"
     showgrid="false"
     inkscape:zoom="1.04625"
     inkscape:cx="400"
     inkscape:cy="400.4779"
     inkscape:window-width="1920"
     inkscape:window-height="1017"
     inkscape:window-x="-8"
     inkscape:window-y="-8"
     inkscape:window-maximized="1"
     inkscape:current-layer="g9270">
    <inkscape:page
       x="0"
       y="0"
       id="page9268"
       width="800"
       height="800" />
  </sodipodi:namedview>
  <g
     id="g9270"
     inkscape:groupmode="layer"
     inkscape:label="Page 1"
     transform="matrix(1.3333333,0,0,-1.3333333,0,800)">
    <g
       id="g9272"
       transform="translate(49.7601,138.816)">
      <path
         d="M 0,0 309.231,-59.569 550.24,9.773 V 9.802 L 130.082,25.519 Z"
         style="fill:#e8e8e7;fill-opacity:1;fill-rule:nonzero;stroke:none"
         id="path9274" />
    </g>
    <g
       id="g9276">
      <g
         id="g9278"
         clip-path="url(#clipPath9282)">
        <g
           id="g9284"
           transform="translate(405.2021,217.748)">
          <path
             d="m 0,0 29.519,5.391 c 13.046,4.694 24.92,-14.221 26.521,-42.247 1.601,-28.028 -7.68,-54.553 -20.726,-59.248 -1.728,-0.621 -3.436,-0.825 -5.104,-0.653 l -17.443,-2.229 c -13.44,-1.719 -26.482,13.658 -30.007,40.991 C -20.767,-30.659 -13.411,-2.451 0,0"
             style="fill:#1c1a19;fill-opacity:1;fill-rule:evenodd;stroke:none"
             id="path9286" />
        </g>
        <g
           id="g9288"
           transform="translate(57.6851,165.5283)">
          <path
             d="M 0,0 57.819,6.634 20.507,81.301 -19.784,60.837 -18.33,27.506 Z"
             style="fill:#971a1f;fill-opacity:1;fill-rule:evenodd;stroke:none"
             id="path9290" />
        </g>
        <g
           id="g9292"
           transform="translate(233.7866,143.123)">
          <path
             d="M 0,0 79.133,9.079 28.067,111.272 -48.305,72.482 Z"
             style="fill:#971a1f;fill-opacity:1;fill-rule:evenodd;stroke:none"
             id="path9294" />
        </g>
        <g
           id="g9296"
           transform="translate(93.8638,210.3877)">
          <path
             d="m 0,0 -21.154,-3.076 11.689,-74.694 15.968,3.242 c 9.517,1.933 16.121,16.123 14.325,36.704 C 19.033,-17.245 9.611,1.398 0,0"
             style="fill:#1c1a19;fill-opacity:1;fill-rule:evenodd;stroke:none"
             id="path9298" />
        </g>
        <g
           id="g9300"
           transform="translate(72.71,207.3115)">
          <path
             d="m 0,0 c 9.707,-0.31 20.193,-17.283 23.421,-37.908 3.228,-20.625 -2.025,-37.096 -11.732,-36.786 -9.708,0.31 -20.193,17.281 -23.421,37.908 C -14.96,-16.161 -9.707,0.31 0,0"
             style="fill:#5f6062;fill-opacity:1;fill-rule:evenodd;stroke:none"
             id="path9302" />
        </g>
        <g
           id="g9304"
           transform="translate(80.5986,187.3936)">
          <path
             d="M 0,0 C 4.938,-0.156 10.272,-8.791 11.914,-19.282 13.556,-29.773 10.885,-38.151 5.946,-37.995 1.008,-37.837 -4.326,-29.203 -5.968,-18.713 -7.609,-8.22 -4.938,0.157 0,0"
             style="fill:#e8e8e7;fill-opacity:1;fill-rule:evenodd;stroke:none"
             id="path9306" />
        </g>
        <g
           id="g9308"
           transform="translate(283.3027,204.5195)">
          <path
             d="m 0,0 -28.952,-4.212 15.997,-102.23 21.854,4.437 c 13.027,2.648 22.065,22.069 19.606,50.235 C 26.049,-23.601 13.152,1.913 0,0"
             style="fill:#1c1a19;fill-opacity:1;fill-rule:evenodd;stroke:none"
             id="path9310" />
        </g>
        <g
           id="g9312"
           transform="translate(338.4131,129.8105)">
          <path
             d="m 0,0 -40.026,5.094 c -0.135,5.001 -0.63,9.968 -1.371,14.698 -2.104,13.466 -6.627,27.751 -13.82,39.394 -5.603,9.069 -14.55,19.01 -26.027,19.377 -2.124,0.067 -4.23,-0.21 -6.262,-0.837 -9.838,-3.053 -14.96,-13.091 -17.326,-22.398 -2.946,-11.592 -2.62,-24.778 -0.783,-36.52 0.285,-1.82 0.616,-3.655 0.989,-5.495 l -128.902,16.4 c -0.097,3.654 -0.459,7.285 -1,10.741 -1.54,9.837 -4.843,20.275 -10.099,28.783 -4.093,6.624 -10.631,13.888 -19.017,14.156 -1.551,0.049 -3.091,-0.152 -4.574,-0.612 -7.189,-2.229 -10.931,-9.563 -12.66,-16.364 -2.153,-8.469 -1.914,-18.104 -0.572,-26.684 0.208,-1.329 0.449,-2.669 0.722,-4.015 L -304.87,38.79 -331.34,236.167 -106.55,343.62 45.101,224.156 52.29,37.093 Z"
             style="fill:#cc2d23;fill-opacity:1;fill-rule:evenodd;stroke:none"
             id="path9314" />
        </g>
        <g
           id="g9316"
           transform="translate(510.0146,182.5176)">
          <path
             d="m 0,0 -11.714,-28.91 -159.888,-23.797 10.645,31.641 85.747,32.687 z"
             style="fill:#d93522;fill-opacity:1;fill-rule:evenodd;stroke:none"
             id="path9318" />
        </g>
        <g
           id="g9320"
           transform="translate(349.0576,161.4512)">
          <path
             d="M 0,0 C 53.652,7.022 107.303,14.045 160.957,21.066 157.822,107.475 141.555,194.3 101.464,281.886 28.577,291.917 -44.308,301.948 -117.195,311.979 -61.697,213.558 -22.261,109.691 0,0"
             style="fill:#ea3a1f;fill-opacity:1;fill-rule:evenodd;stroke:none"
             id="path9322" />
        </g>
        <g
           id="g9324"
           transform="translate(24.9878,232.3936)">
          <path
             d="M 0,0 -17.915,133.583 206.875,241.037 331.881,142.562 307.833,-2.797 Z"
             style="fill:#181311;fill-opacity:1;fill-rule:evenodd;stroke:none"
             id="path9326" />
        </g>
        <g
           id="g9328"
           transform="translate(277.4297,437.5347)">
          <path
             d="m 0,0 41.375,-32.594 -84.037,-174.454 -56.825,0.517 z m -45.755,35.807 -116.463,-241.769 39.114,-0.354 105.911,219.861 -28.374,22.351 z m -61.631,-29.461 -102.063,-211.879 32.471,-0.295 111.963,232.429 z m -145.056,-211.487 -1.734,12.933 80.345,166.791 29.852,14.271 -93.515,-194.132 z"
             style="fill:#3c1814;fill-opacity:1;fill-rule:evenodd;stroke:none"
             id="path9330" />
        </g>
        <g
           id="g9332"
           transform="translate(506.1719,237.2803)">
          <path
             d="m 0,0 c -7.222,68.324 -24.02,136.955 -55.65,206.057 -72.887,10.031 -145.772,20.062 -218.659,30.093 43.876,-77.811 77.711,-159.029 100.958,-243.834 z"
             style="fill:#231412;fill-opacity:1;fill-rule:evenodd;stroke:none"
             id="path9334" />
        </g>
        <g
           id="g9336"
           transform="translate(439.4932,444.8555)">
          <path
             d="m 0,0 c -10.792,-35.144 -23.443,-70.311 -37.56,-105.498 -14.557,-36.29 -30.644,-72.561 -47.835,-108.818 l -21.277,-0.943 c -1.37,4.999 -2.778,9.986 -4.223,14.962 16.709,35.293 32.307,70.492 46.374,105.557 13.24,33.005 25.148,65.928 35.385,98.749 z m 46.801,-100.344 c -5.104,18.8 -11.13,37.629 -18.184,56.49 -8.606,-24.635 -17.811,-49.503 -27.643,-74.613 -12.111,-30.934 -25.163,-62.183 -39.196,-93.76 l 40.471,1.795 c 11.525,26.475 22.375,52.738 32.576,78.795 4.097,10.458 8.085,20.889 11.976,31.293"
             style="fill:#4e1914;fill-opacity:1;fill-rule:evenodd;stroke:none"
             id="path9338" />
        </g>
        <g
           id="g9340"
           transform="translate(254.3506,200.3076)">
          <path
             d="m 0,0 c 13.287,-0.424 27.638,-23.651 32.056,-51.882 4.417,-28.23 -2.773,-50.77 -16.059,-50.348 -13.285,0.424 -27.637,23.654 -32.055,51.883 C -20.476,-22.118 -13.285,0.424 0,0"
             style="fill:#5f6062;fill-opacity:1;fill-rule:evenodd;stroke:none"
             id="path9342" />
        </g>
        <g
           id="g9344"
           transform="translate(265.1479,173.0479)">
          <path
             d="M 0,0 C 6.757,-0.214 14.059,-12.03 16.307,-26.39 18.553,-40.75 14.896,-52.217 8.138,-52.001 1.381,-51.786 -5.922,-39.97 -8.169,-25.61 -10.417,-11.25 -6.758,0.217 0,0"
             style="fill:#e8e8e7;fill-opacity:1;fill-rule:evenodd;stroke:none"
             id="path9346" />
        </g>
        <g
           id="g9348"
           transform="translate(121.71,365.3853)">
          <path
             d="M 0,0 34.882,-209.046 103.48,-216.565 61.555,21.569 Z"
             style="fill:#cc2d23;fill-opacity:1;fill-rule:evenodd;stroke:none"
             id="path9350" />
        </g>
        <g
           id="g9352"
           transform="translate(127.7046,361.8394)">
          <path
             d="M 0,0 33.479,-200.645 91.007,-206.95 51.401,18.013 Z"
             style="fill:#181311;fill-opacity:1;fill-rule:evenodd;stroke:none"
             id="path9354" />
        </g>
        <g
           id="g9356"
           transform="translate(505.5869,181.9375)">
          <path
             d="M 0,0 -1.766,34.151 -34.638,18.247 -41.443,-5.422 Z m -150.001,-19.631 -7.572,37.888 49.12,-6.192 13.626,-24.476 z"
             style="fill:#fcdbe1;fill-opacity:1;fill-rule:evenodd;stroke:none"
             id="path9358" />
        </g>
        <g
           id="g9360"
           transform="translate(495.7842,212.2002)">
          <path
             d="M 0,0 -0.601,-31.624 9.803,-30.263 8.037,3.889 Z m -140.198,-49.894 -7.573,37.888 15.975,-2.015 8.297,-33.688 z"
             style="fill:#f2a50f;fill-opacity:1;fill-rule:evenodd;stroke:none"
             id="path9362" />
        </g>
      </g>
    </g>
  </g>
</svg>
